<mxfile host="app.diagrams.net" modified="2021-11-29T20:21:30.106Z" agent="5.0 (Windows)" etag="h3fC9dIo_I3lt2wvF6uj" version="15.8.7" type="github">
  <diagram id="fsKUEpt00cAQXqf5Vs6Y" name="Page-1">
    <mxGraphModel dx="1710" dy="847" grid="1" gridSize="10" guides="1" tooltips="1" connect="1" arrows="1" fold="1" page="1" pageScale="1" pageWidth="850" pageHeight="1100" math="0" shadow="0">
      <root>
        <mxCell id="0" />
        <mxCell id="1" parent="0" />
        <mxCell id="f-GdbEtR7hPHFlpdBjNb-2" value="User" style="shape=umlActor;verticalLabelPosition=bottom;verticalAlign=top;html=1;" parent="1" vertex="1">
          <mxGeometry x="150" y="130" width="30" height="60" as="geometry" />
        </mxCell>
        <mxCell id="f-GdbEtR7hPHFlpdBjNb-3" value=":System" style="html=1;" parent="1" vertex="1">
          <mxGeometry x="600" y="140" width="110" height="50" as="geometry" />
        </mxCell>
        <mxCell id="f-GdbEtR7hPHFlpdBjNb-6" value="" style="endArrow=none;dashed=1;html=1;rounded=0;" parent="1" edge="1">
          <mxGeometry width="50" height="50" relative="1" as="geometry">
            <mxPoint x="165" y="620" as="sourcePoint" />
            <mxPoint x="165" y="220" as="targetPoint" />
          </mxGeometry>
        </mxCell>
        <mxCell id="f-GdbEtR7hPHFlpdBjNb-7" value="" style="endArrow=none;dashed=1;html=1;rounded=0;" parent="1" edge="1">
          <mxGeometry width="50" height="50" relative="1" as="geometry">
            <mxPoint x="654" y="620" as="sourcePoint" />
            <mxPoint x="654.4100000000001" y="190" as="targetPoint" />
          </mxGeometry>
        </mxCell>
      </root>
    </mxGraphModel>
  </diagram>
</mxfile>
